<svg width="14" height="18" viewBox="0 0 14 18" fill="none" xmlns="http://www.w3.org/2000/svg">
<path d="M6.8 0.5C4.45281 0.5 2.55 2.40279 2.55 4.75C2.55 7.09719 4.45281 9 6.8 9C9.14719 9 11.05 7.09719 11.05 4.75C11.05 2.40279 9.14719 0.5 6.8 0.5ZM1.80621 10.7C0.808885 10.7 8.5e-06 11.5081 0 12.5058V12.825C0 14.4211 0.82521 15.6159 2.09109 16.3866C3.33587 17.1444 5.00909 17.5 6.8 17.5C8.59091 17.5 10.2641 17.1444 11.5089 16.3866C12.7748 15.6159 13.6 14.4211 13.6 12.825V12.5057C13.6 11.508 12.7911 10.7 11.7938 10.7H1.80621Z" fill="white"/>
</svg>
